<svg width="41" height="26.4" xmlns="http://www.w3.org/2000/svg"><rect fill="#0072CE" width="41" height="26.4" rx="2"/><path d="M35.14 15.253h-1.555c-.156 0-.259.006-.345.064-.09.058-.125.143-.125.256 0 .134.076.226.186.265.09.031.187.04.33.04l.461.013c.467.011.778.091.968.286.035.027.055.058.08.088v-1.012zm0 2.346c-.208.302-.612.455-1.158.455h-1.647v-.763h1.64c.163 0 .277-.021.345-.088a.31.31 0 0 0 .101-.232.292.292 0 0 0-.104-.235c-.062-.055-.152-.08-.3-.08-.801-.027-1.8.025-1.8-1.1 0-.517.328-1.06 1.223-1.06h1.7v-.708h-1.58c-.476 0-.822.113-1.067.29v-.29h-2.335c-.373 0-.811.092-1.019.29v-.29h-4.17v.29c-.331-.238-.891-.29-1.15-.29h-2.75v.29c-.262-.253-.846-.29-1.202-.29H16.79l-.704.76-.66-.76h-4.598v4.965h4.512l.725-.772.684.772 2.781.003v-1.169h.273c.37.006.804-.009 1.188-.174v1.34h2.294v-1.294h.11c.142 0 .156.006.156.146v1.148h6.967c.443 0 .905-.113 1.161-.318v.318h2.21c.46 0 .91-.064 1.251-.229v-.925zm-3.403-1.422c.166.172.255.388.255.754 0 .766-.48 1.123-1.34 1.123h-1.661v-.763h1.654c.162 0 .277-.021.349-.088a.315.315 0 0 0 .1-.232.305.305 0 0 0-.104-.235c-.065-.055-.155-.08-.303-.08-.798-.027-1.797.025-1.797-1.1 0-.517.325-1.06 1.22-1.06h1.71v.757h-1.565c-.155 0-.256.006-.342.064-.093.058-.128.143-.128.256 0 .135.08.226.187.265.09.032.186.04.332.04l.459.013c.463.011.78.091.974.286zm-7.697-.22c-.114.068-.255.074-.42.074h-1.037v-.8h1.05c.152 0 .304.004.407.065.11.058.177.168.177.32a.383.383 0 0 1-.177.342zm.515.443c.19.07.345.196.418.3.12.173.138.335.142.649v.705h-.857v-.445c0-.214.02-.531-.138-.697-.124-.127-.314-.158-.625-.158h-.912v1.3h-.857v-3.558h1.97c.431 0 .746.019 1.025.168.27.162.439.384.439.79 0 .568-.38.858-.605.946zm1.078-1.904h2.847v.736h-1.998v.646h1.949v.727h-1.949v.708l1.998.003v.738h-2.847v-3.558zm-5.755 1.642h-1.102v-.906h1.112c.308 0 .522.125.522.436 0 .308-.204.47-.532.47zm-1.952 1.593l-1.31-1.45 1.31-1.404v2.854zm-3.382-.418h-2.097v-.708h1.873v-.727h-1.873v-.646h2.139l.933 1.037-.975 1.044zm6.781-1.645c0 .988-.74 1.193-1.485 1.193h-1.064v1.193h-1.658l-1.05-1.178-1.092 1.178h-3.378v-3.558h3.43l1.05 1.166 1.085-1.166h2.725c.677 0 1.437.186 1.437 1.172zM7.528 10.395l-.584-1.419-.58 1.419h1.164zM20.39 9.83c-.117.07-.256.073-.422.073h-1.036v-.79h1.05c.149 0 .304.007.405.064.11.052.179.162.179.315 0 .155-.065.28-.176.338zm7.392.565l-.59-1.419-.587 1.419h1.177zm-13.78 1.535h-.874l-.004-2.787-1.236 2.787h-.75L9.899 9.14v2.789H8.165l-.328-.794H6.06l-.33.794h-.927L6.33 8.372h1.267l1.451 3.369V8.372h1.392l1.116 2.414 1.026-2.414h1.42v3.558zm3.485 0h-2.85V8.372h2.85v.741h-1.996v.641h1.948v.73h-1.948v.71h1.996v.736zm4.018-2.6c0 .567-.38.86-.601.949.186.07.346.195.421.3.12.176.142.334.142.652v.699h-.86l-.004-.449c0-.214.02-.522-.135-.693-.124-.125-.314-.152-.621-.152h-.916v1.294h-.853V8.372h1.962c.436 0 .757.012 1.033.17.27.16.432.391.432.788zm1.365 2.6H22V8.372h.87v3.558zm10.096 0h-1.208L30.14 9.26v2.67h-1.737l-.332-.794H26.3l-.322.794h-.998c-.415 0-.94-.092-1.237-.394-.3-.302-.456-.71-.456-1.358 0-.528.094-1.01.46-1.391.276-.284.708-.415 1.296-.415h.825v.762h-.808c-.311 0-.487.047-.656.211-.146.15-.246.433-.246.806 0 .381.076.656.235.836.131.14.37.183.594.183h.383l1.203-2.798h1.278l1.444 3.365V8.372h1.298l1.5 2.478V8.372h.873v3.558zm-28.173.699H6.25l.329-.79h.735l.328.79h2.868v-.605l.256.607h1.488l.256-.616v.614h7.126l-.003-1.298h.138c.096.004.124.013.124.172v1.126h3.686v-.302c.297.158.76.302 1.368.302h1.55l.333-.79h.735l.325.79h2.988v-.751l.452.75h2.395v-4.96h-2.37v.586l-.332-.586h-2.431v.586l-.305-.586h-3.284c-.55 0-1.034.076-1.424.29v-.29h-2.266v.29c-.249-.22-.587-.29-.964-.29h-8.28l-.556 1.281-.57-1.281H8.336v.586l-.286-.586H5.826l-1.033 2.359v2.603z" fill="#FFF"/></svg>