<svg width="41" height="26.4" xmlns="http://www.w3.org/2000/svg"><rect fill="#12438C" width="41" height="26.4" rx="2"/><path d="M26.934 13.557h1.742l.03.003c.008 0 .018 0 .027.002.01 0 .02.002.028.003.01 0 .02.002.03.004.01 0 .02 0 .028.003.006 0 .012.002.017.003l.01.003c.01 0 .02.003.03.006l.028.008c.01.003.02.006.028.01l.03.01.028.013.028.014.03.016c.008.005.018.01.027.017l.028.018c.01.008.02.014.03.02.01.01.02.016.028.024.01.008.02.016.028.025l.03.026.027.03c.01.012.02.023.028.035l.03.04a.536.536 0 0 1 .084.165c.012.03.02.063.03.095.012.058.02.118.02.18a.89.89 0 0 1-.02.182c-.01.033-.018.065-.03.096a.558.558 0 0 1-.028.067l-.028.053c-.01.016-.02.03-.028.045l-.03.04-.027.033-.028.03-.03.028-.027.025-.028.02a.174.174 0 0 1-.03.02c-.008.008-.018.014-.027.02-.01.006-.02.01-.028.016l-.03.016c-.008.004-.017.01-.027.013l-.028.012a.176.176 0 0 1-.03.01.108.108 0 0 1-.027.01c-.01.004-.02.006-.028.01-.01 0-.02.004-.03.006l-.01.003-.017.003c-.01 0-.018.002-.028.003l-.03.004-.027.003c-.01 0-.02 0-.028.002-.01 0-.02 0-.03.002H26.93v-1.547l.004.002zm2.28-1.753a.732.732 0 0 1 .001.329.566.566 0 0 1-.03.096.48.48 0 0 1-.027.066l-.028.05-.03.043-.027.036c-.01.01-.02.02-.028.032l-.03.028c-.008.01-.017.017-.027.025-.01.01-.02.017-.028.024l-.03.02-.027.02a.184.184 0 0 0-.028.015l-.03.014a.113.113 0 0 1-.027.013l-.028.012c-.01.003-.02.006-.028.01l-.03.01-.027.007-.028.007-.03.005h-.006l-.02.004-.028.003-.03.002c-.008 0-.018 0-.027.002h-.028l-.03.002h-1.55v-1.43h1.559l.017.002h.028l.028.003c.01 0 .02 0 .03.002.01 0 .02.002.027.003l.02.002.008.002c.01 0 .02.002.03.004l.027.007c.01.004.02.006.028.01l.03.008.027.01.028.013.028.014.03.015.027.016.028.018.03.02c.01.008.02.015.028.023.01.008.02.017.028.026l.03.028.027.033c.01.012.02.024.028.036l.03.042a.49.49 0 0 1 .056.116c.012.03.02.063.03.096l-.001.006zm3.513-7.408h.01V19.07a3.21 3.21 0 0 1-.038.483l-.03.147c-.008.04-.018.08-.028.118l-.028.1-.03.09-.027.08-.028.073-.03.07c-.01.02-.018.042-.028.063-.01.02-.02.04-.028.06l-.03.056-.027.053-.028.05-.03.05-.028.047c-.01.015-.02.03-.028.045l-.03.043a.28.28 0 0 1-.027.04c-.01.015-.02.028-.028.042l-.03.04c-.01.01-.018.023-.028.036-.01.012-.02.024-.028.036l-.03.035a.288.288 0 0 1-.027.034l-.028.035-.03.03-.028.033-.028.03-.03.03a.179.179 0 0 1-.027.028l-.028.028-.03.027c-.01.01-.018.02-.028.028l-.028.025c-.01.01-.02.017-.03.026l-.027.023-.028.024-.03.023-.028.023-.028.022a.21.21 0 0 0-.028.022l-.03.02-.027.02c-.01.008-.02.014-.03.02l-.028.02c-.01.007-.02.013-.028.02l-.028.018-.03.018-.027.018-.03.018-.028.017a.187.187 0 0 0-.028.016l-.028.017-.03.016-.027.015-.03.015-.028.014-.028.014-.028.014-.03.013-.027.013c-.01.004-.02.01-.03.013l-.028.012-.028.012-.028.01-.03.012-.027.01-.03.01-.028.01-.028.01c-.01.003-.02.006-.028.01l-.03.01-.027.007-.03.01c-.01 0-.018.004-.028.007l-.028.008-.028.007-.03.006-.027.007-.03.007-.028.006-.028.006-.028.006-.03.006c-.008 0-.017.003-.027.005-.01 0-.02.002-.03.004l-.027.004-.03.005-.027.003-.028.004-.03.004-.027.003c-.01 0-.018.002-.027.003l-.03.002-.027.003c-.01 0-.02 0-.028.002l-.03.002h-.054l-.03.003H25.5v-5.982h4.664c.01 0 .018 0 .028-.002h.028l.028-.003.03-.002.027-.002h.03l.027-.004.03-.003.027-.004.028-.005c.01 0 .02-.002.03-.004l.027-.003.027-.005.03-.005.027-.005.028-.006.03-.006.027-.007.027-.007.03-.007.027-.01c.01 0 .02-.004.028-.007l.03-.008.027-.01.027-.008.03-.01.027-.01.028-.01.03-.012.027-.012.027-.012.03-.01c.008-.006.018-.01.027-.015l.028-.014a.194.194 0 0 0 .03-.013l.027-.015.027-.016.03-.016.027-.017a.142.142 0 0 0 .028-.02c.01-.005.02-.01.03-.017l.027-.02.027-.02.03-.022.027-.023a.215.215 0 0 0 .028-.023l.03-.025.027-.026c.008-.01.018-.018.027-.028l.03-.03.027-.03c.01-.01.02-.023.028-.034.01-.01.02-.023.028-.035l.03-.04c.01-.013.018-.027.027-.04.01-.016.02-.03.028-.046l.03-.05.027-.056c.01-.02.02-.042.028-.064l.03-.076c.01-.032.02-.064.027-.097.012-.047.022-.096.028-.146a1.232 1.232 0 0 0-.028-.515l-.028-.093-.03-.073-.028-.062-.028-.054-.03-.048a.312.312 0 0 0-.027-.043l-.028-.04-.03-.037-.028-.035a.214.214 0 0 1-.028-.032l-.028-.03-.03-.027c-.008-.01-.018-.018-.027-.027-.01-.01-.02-.017-.03-.026l-.028-.024c-.01-.008-.02-.015-.028-.023-.01-.007-.02-.014-.028-.022l-.03-.02-.027-.02-.03-.018-.028-.02a.128.128 0 0 1-.028-.016c-.01-.006-.02-.01-.028-.017-.01-.006-.02-.01-.03-.017l-.027-.015-.03-.014-.028-.015-.028-.014-.028-.013-.03-.012-.027-.01a.194.194 0 0 0-.03-.013l-.028-.01-.028-.01-.028-.01-.03-.01-.027-.01-.03-.008-.028-.01-.028-.007-.028-.008-.03-.007-.027-.007c-.01 0-.02-.003-.03-.005l-.028-.006-.028-.007-.028-.006-.03-.005c-.008 0-.017-.003-.027-.004l-.03-.005c-.01 0-.018-.003-.028-.004l-.028-.005-.028-.003-.03-.004-.027-.003-.03-.002-.027-.003-.027-.002v-.034l.027-.004.028-.004.03-.005.027-.005.03-.006.027-.007.028-.006.03-.007.027-.008.027-.008.03-.008.027-.01.028-.008.03-.01.027-.01c.01-.004.018-.008.027-.01.01-.005.02-.01.03-.013l.027-.012.028-.012.03-.013.027-.014.027-.014.03-.017.027-.016c.01-.005.02-.01.028-.017l.03-.018.027-.018.027-.02.03-.02c.008-.008.018-.015.027-.022l.028-.023c.01-.01.02-.017.03-.026l.027-.025.027-.028.03-.03.027-.03c.01-.01.02-.022.028-.033l.03-.036.027-.038.027-.04.03-.046c.008-.017.018-.033.027-.05.01-.02.02-.037.028-.056l.03-.065.027-.078a1.51 1.51 0 0 0 .057-.268c.003-.045.006-.09.006-.137a1.115 1.115 0 0 0-.037-.312.801.801 0 0 0-.027-.102l-.03-.077c-.008-.022-.018-.043-.028-.064l-.028-.055a.49.49 0 0 1-.028-.05l-.03-.043a.468.468 0 0 0-.027-.04l-.03-.037c-.01-.01-.018-.023-.028-.034l-.028-.032c-.01-.01-.02-.018-.028-.028l-.03-.028a.166.166 0 0 0-.027-.026l-.03-.025-.028-.023-.028-.022-.028-.02a.174.174 0 0 0-.03-.02.135.135 0 0 0-.027-.02l-.03-.018-.028-.017-.028-.017-.028-.015-.03-.014a.17.17 0 0 0-.027-.014l-.03-.014c-.01-.004-.018-.01-.028-.013l-.028-.012-.028-.012-.03-.01-.027-.01a.176.176 0 0 0-.03-.01.105.105 0 0 0-.028-.01l-.028-.01c-.01-.003-.02-.006-.028-.01l-.03-.008-.027-.007-.03-.008-.028-.007-.028-.007-.028-.006-.03-.006c-.008 0-.017-.003-.027-.005l-.03-.005-.027-.005-.03-.005-.027-.004-.028-.004-.03-.004-.027-.003-.027-.004h-.03l-.027-.004-.028-.002-.03-.002-.027-.002h-.012l-.03-.003-.027-.002h-.028l-.03-.002-.027-.002h-.085l-.028-.002h-4.173V7.33c0-.204.02-.404.06-.597.01-.042.018-.083.03-.123a1.76 1.76 0 0 1 .027-.104l.028-.09.03-.084.027-.075c.01-.023.02-.047.028-.07l.03-.064.027-.06.028-.058.03-.054a.482.482 0 0 1 .027-.05l.028-.05.03-.048.027-.045.028-.044.03-.042.027-.04c.01-.013.02-.026.028-.04.01-.01.02-.024.03-.036a.318.318 0 0 1 .027-.037l.028-.035.03-.035.027-.033.028-.032.03-.032.027-.03.028-.03.03-.03.027-.027.028-.027.03-.027c.008-.01.017-.018.027-.027l.028-.025.03-.025.027-.024c.01-.01.02-.016.028-.024.01-.008.02-.015.028-.023l.03-.022.027-.02.028-.022.03-.02.027-.02.028-.02.03-.02.027-.018c.01-.007.02-.013.028-.02l.03-.016.027-.018c.01-.005.02-.01.028-.017l.03-.017c.008-.006.018-.01.027-.016.01-.005.02-.01.028-.016l.03-.014.027-.015a.182.182 0 0 0 .028-.013l.03-.014.027-.014.028-.014c.01-.004.02-.01.03-.013l.027-.013.028-.012.03-.012.027-.01.028-.012.03-.01c.008-.005.017-.008.027-.012.01-.003.02-.006.028-.01l.03-.01.027-.01.028-.008.03-.01.027-.008.028-.008.03-.008.027-.007.028-.008.03-.007.027-.007c.01 0 .02-.003.028-.005l.028-.006.03-.007.027-.005.028-.006c.01 0 .02-.003.03-.004l.028-.005.028-.005c.01 0 .02-.002.03-.004a.136.136 0 0 0 .027-.004c.01 0 .02-.002.028-.003l.03-.003c.01 0 .02-.002.028-.003.01 0 .02 0 .028-.002l.03-.002.027-.003h.028l.03-.003h.028l.028-.002h.03c.008 0 .018 0 .027-.002h4.339l-.004-.002zM9.322 14.608l-.06-.03V7.332c0-.204.02-.403.06-.596.01-.04.018-.082.03-.123.007-.034.017-.068.027-.103l.027-.09.028-.083.03-.076.027-.07c.01-.02.02-.042.028-.064.01-.02.02-.04.028-.06l.03-.058.027-.054a.52.52 0 0 0 .028-.052l.03-.05.027-.047c.01-.015.02-.03.028-.045l.028-.043.03-.042a.28.28 0 0 1 .027-.04l.028-.04.03-.038.028-.037c.01-.01.02-.023.028-.035.01-.01.02-.023.028-.034l.03-.035.027-.032.03-.03.027-.032.03-.028.027-.03.028-.027.03-.028c.008-.01.017-.017.027-.026l.027-.025.028-.025c.01-.01.02-.017.03-.025l.027-.024a.215.215 0 0 0 .028-.023l.028-.022.03-.023.027-.02.028-.023.03-.02a.105.105 0 0 1 .027-.02l.028-.02.028-.02.03-.02.027-.017.028-.018.03-.017.028-.017c.01-.005.02-.01.028-.016l.028-.015a.228.228 0 0 1 .03-.017l.027-.015.03-.015.027-.015.03-.014c.008-.004.017-.01.027-.013a.182.182 0 0 0 .028-.013l.028-.013.03-.012c.008-.004.018-.01.027-.013l.028-.012.03-.012.027-.01.028-.012.028-.01.03-.01.027-.01.028-.01.03-.01.027-.008c.01-.003.02-.006.028-.01.01 0 .02-.004.028-.007l.03-.01.027-.006.028-.008.03-.007.028-.008.028-.006.028-.006.03-.006.027-.005.03-.007.027-.005.03-.004.027-.005.028-.005c.01 0 .02-.003.028-.004l.03-.002.027-.004c.01 0 .02-.002.028-.003h.03l.027-.004.028-.002c.01 0 .02 0 .028-.002.01 0 .02 0 .03-.002h.027l.028-.002h.03c.008 0 .017 0 .027-.002h4.362V19.07a2.92 2.92 0 0 1-.052.553c-.01.044-.018.088-.03.13a1.262 1.262 0 0 1-.027.11 1.48 1.48 0 0 1-.027.095c-.01.028-.02.056-.028.084l-.03.077a1.006 1.006 0 0 1-.027.07c-.01.023-.02.045-.028.067l-.03.06-.027.06-.028.055c-.01.018-.02.035-.028.053l-.03.05-.027.048a.552.552 0 0 0-.028.045c-.01.015-.02.03-.028.045l-.03.042a.28.28 0 0 1-.027.04l-.028.04-.03.04c-.01.01-.018.023-.028.036l-.028.036-.028.035-.03.035-.027.032-.03.032-.027.03-.03.03-.027.03a.24.24 0 0 0-.028.027l-.03.028a.166.166 0 0 1-.027.026.24.24 0 0 1-.027.028l-.028.025-.03.025-.027.024-.028.024-.03.023c-.008.006-.017.014-.027.02-.01.01-.02.016-.028.023l-.028.02-.03.022a.189.189 0 0 1-.027.02l-.028.02c-.01.007-.02.013-.028.02l-.03.018-.027.02a.13.13 0 0 0-.028.017.228.228 0 0 0-.03.017l-.028.017c-.01.006-.02.01-.028.017-.01.006-.02.01-.028.017l-.03.016-.027.015-.03.015-.027.014-.03.015-.027.014a.182.182 0 0 0-.028.013l-.03.012-.027.012-.027.013-.028.012-.03.01-.027.012-.028.01a.176.176 0 0 1-.03.01c-.008.005-.017.008-.027.012l-.028.01-.028.01-.03.008-.027.01-.028.008-.028.008-.03.008-.027.008-.028.008-.03.007c-.01 0-.018.003-.028.006l-.028.006-.028.006-.03.006-.027.006-.03.005-.027.005-.03.005-.027.005c-.01 0-.02.002-.028.004l-.03.004-.027.003c-.008.003-.018.004-.027.005-.01 0-.02.002-.028.003l-.03.003-.027.003c-.01 0-.02.002-.028.003h-.03l-.027.003h-.028c-.01 0-.02 0-.028.002h-.071l-.028.002H9.256V15.82l.06.015.03.007.027.007.027.006.028.007.03.006.027.006.028.006.028.006.03.007.027.006.028.007.03.006.027.006.028.004.028.006.03.006.027.005.028.007.03.005.028.006.028.005.028.005.03.005.027.005.03.005.027.005.03.005.027.005.028.005.03.005.027.004.027.005.028.004.03.006.027.004.028.005.028.004.03.003.027.004.028.004.03.005.027.004.028.003.028.004.03.004.027.004.028.004.03.004.028.003.028.004.028.002.03.003.027.004.03.002.027.003.03.003.027.003.028.004.028.003.03.003.027.003.028.002.03.003.027.003.028.003.028.003.03.002.027.003.028.003.03.002.027.002.028.002.028.002h.03l.027.003.028.002.03.002h.028l.028.003h.028l.03.003h.027l.03.003h.058l.027.003h.028l.028.002h.03l.027.002h.028l.03.002h.083l.03.002h.14l.028.002h.23l.027-.002h.056l.03-.002h.055l.028-.002h.03l.027-.002.028-.002h.03l.027-.002.028-.002h.028l.03-.003.027-.002.028-.002.03-.002h.027l.028-.003.028-.002.03-.002.027-.003.028-.002.03-.003.028-.003.028-.003.028-.004.03-.003.027-.003.03-.003.027-.004.03-.003.027-.004.028-.004.028-.004c.01 0 .02-.003.03-.004l.027-.004.028-.005.03-.004c.008 0 .017-.002.027-.004l.028-.005c.01 0 .02-.002.028-.003l.03-.006.027-.004.028-.005.028-.005c.01 0 .02-.004.03-.005l.028-.006.028-.006.03-.007.027-.005.028-.006a.167.167 0 0 1 .03-.008l.028-.007.028-.007.028-.008.03-.007.027-.008.03-.008.027-.008.03-.01.027-.008.028-.01.028-.007.03-.01.027-.01c.01-.003.02-.006.028-.01a.176.176 0 0 0 .03-.01l.027-.01.028-.01.028-.01c.01-.005.02-.01.03-.012l.027-.012.028-.01.028-.012c.01-.005.02-.01.03-.013l.028-.013.028-.013.03-.015c.008-.004.018-.01.027-.013l.028-.015.03-.014.028-.016.028-.015c.01-.006.02-.01.028-.016.01-.006.02-.01.03-.017l.027-.018.03-.017.027-.018.03-.02.027-.018.028-.02.028-.022.03-.02.027-.023c.01-.008.02-.015.028-.023l.03-.024.027-.024.028-.025.028-.028.03-.027.027-.03.028-.028c.01-.01.02-.02.028-.032l.03-.033a.23.23 0 0 0 .028-.034c.01-.012.02-.023.028-.036l.03-.038.027-.04a.51.51 0 0 0 .028-.042l.03-.045a.403.403 0 0 0 .028-.05.49.49 0 0 0 .028-.05c.01-.02.02-.038.028-.057l.03-.062.027-.068.03-.076c.01-.03.02-.058.027-.088l.03-.105a3.202 3.202 0 0 0 .055-.335 2.8 2.8 0 0 0 .014-.292v-3.405H13.37v3.405a1.479 1.479 0 0 1-.036.35 1.092 1.092 0 0 1-.027.113l-.03.087-.027.072-.03.062a.697.697 0 0 1-.027.055c-.01.017-.02.033-.028.05l-.03.044a.28.28 0 0 1-.027.04.35.35 0 0 1-.055.074l-.03.033-.027.03-.028.03-.028.027-.03.025-.027.024-.028.022-.03.022-.027.02a.2.2 0 0 0-.028.02c-.01.005-.02.01-.028.017-.01.006-.02.01-.03.017l-.027.016-.028.015-.03.015c-.01.004-.018.01-.028.013l-.028.014-.028.012-.03.01a.108.108 0 0 1-.027.01l-.03.012-.027.01-.03.01-.027.007-.028.007-.03.008-.027.007-.027.006-.028.007-.03.005-.027.005-.028.005-.028.004-.03.004-.027.004-.028.003-.03.003c-.008 0-.017 0-.027.002l-.028.002c-.01 0-.02 0-.028.002h-.03c-.008.002-.018.002-.027.002h-.196l-.03-.002h-.027l-.03-.002-.027-.002h-.028l-.03-.003-.027-.002-.027-.003-.028-.002-.03-.002-.027-.003-.028-.003-.028-.003-.03-.004-.027-.004-.028-.003-.03-.005-.027-.004-.028-.003-.028-.004-.03-.005-.027-.004-.028-.005-.03-.006-.028-.005-.028-.006-.028-.006-.03-.005-.027-.006-.03-.006-.027-.005-.03-.006-.027-.008-.028-.006-.03-.007-.027-.008-.027-.007-.028-.007-.03-.007-.027-.007-.028-.007-.028-.008-.03-.008-.027-.008-.028-.008-.03-.008-.027-.01-.028-.008-.028-.008-.03-.01-.027-.01-.028-.008-.03-.01-.028-.01-.028-.008-.028-.01-.03-.01-.027-.01-.03-.01-.027-.01-.03-.01-.027-.012-.028-.01-.03-.012-.027-.01-.027-.012-.028-.01-.03-.013-.027-.01-.028-.013-.028-.012-.03-.012-.027-.012-.028-.012-.03-.013-.027-.01-.028-.014-.028-.013-.03-.013-.027-.013-.028-.013-.03-.013-.028-.012.004.002zm8.118-3.486l-.06.05v-3.84c0-.205.022-.405.06-.597l.03-.123c.008-.035.018-.07.028-.104l.028-.092c.01-.027.02-.055.028-.082l.03-.075a.637.637 0 0 1 .027-.07l.03-.065a.807.807 0 0 1 .028-.06c.01-.02.018-.04.028-.058l.028-.055.028-.05.03-.05a.372.372 0 0 1 .027-.048l.027-.046.028-.043.03-.042a.35.35 0 0 1 .027-.04l.028-.04.03-.037a.318.318 0 0 1 .027-.037l.028-.036c.01-.012.02-.023.028-.035l.03-.034c.008-.01.017-.022.027-.032l.028-.032.028-.03.03-.03.027-.03a.24.24 0 0 0 .028-.027l.03-.028.028-.026a.226.226 0 0 0 .028-.025l.028-.025.03-.025.027-.024.03-.022.028-.023.028-.022.028-.022a.2.2 0 0 0 .028-.02l.03-.02a.135.135 0 0 1 .027-.02c.008-.008.018-.014.027-.02l.028-.02a.26.26 0 0 0 .03-.02c.008-.005.018-.01.027-.017l.028-.018c.01-.005.02-.01.03-.017l.027-.017c.01-.004.02-.01.028-.015.01-.006.02-.01.028-.016.01-.007.02-.012.03-.017l.027-.015.028-.015.03-.014.027-.016.028-.013a.182.182 0 0 0 .028-.013l.03-.013.028-.012.028-.012.028-.012.03-.012.027-.01.03-.012.028-.01.028-.01.028-.01.028-.01.03-.01.027-.008.027-.008.03-.01.027-.007.028-.006.028-.008.03-.007.027-.008.028-.006.028-.006.03-.006.027-.005.028-.007.03-.005.027-.004.028-.005.028-.005c.01 0 .02-.003.03-.004l.028-.002.028-.004c.01 0 .02-.002.028-.003h.03l.027-.004.03-.002c.01 0 .018 0 .028-.002.01 0 .018 0 .028-.002h.028l.028-.002h.03c.008 0 .018 0 .027-.002h4.357V19.07a3.11 3.11 0 0 1-.081.684l-.03.11-.028.094-.028.084c-.01.026-.02.052-.028.077l-.03.07-.027.066-.03.062-.027.06-.03.054a.645.645 0 0 1-.027.052l-.028.05-.03.05c-.008.014-.017.03-.027.044-.008.015-.018.03-.027.044l-.028.043-.03.04a.35.35 0 0 1-.027.04.36.36 0 0 0-.028.04.203.203 0 0 0-.028.036l-.03.036-.027.035-.028.034-.03.033-.027.032-.028.03-.028.03-.03.03-.027.027c-.01.01-.02.018-.028.028-.01.01-.02.017-.03.026-.01.01-.018.02-.028.028l-.028.025-.028.025-.03.024-.027.024-.03.023c-.01.006-.018.014-.027.02l-.03.023-.027.02-.028.022-.03.02-.027.02-.027.02-.028.018-.03.02-.027.016c-.01.005-.02.01-.028.017-.01.006-.02.01-.03.017l-.027.017c-.01.006-.02.01-.028.017l-.028.016-.03.015-.027.015-.028.014-.028.014-.03.015-.027.014a.181.181 0 0 0-.028.012l-.03.012-.028.013-.028.012-.028.01-.03.012-.027.01a.176.176 0 0 1-.03.01.112.112 0 0 1-.027.01l-.03.01-.027.01-.028.01-.03.01-.027.008-.027.008-.028.008-.03.008-.027.008-.028.007c-.01 0-.02.003-.03.006l-.027.006-.028.006-.028.006-.03.006-.027.005-.028.005-.028.005-.03.005a.136.136 0 0 0-.027.004l-.028.004-.03.003a.137.137 0 0 1-.028.005c-.01 0-.02.002-.028.003-.01 0-.02.002-.028.003l-.03.003-.027.003h-.03l-.028.003h-.028c-.01 0-.02 0-.028.002h-.063l-.027.002h-4.335v-6.776l.06.05.03.023c.01.01.018.016.028.023l.028.022.028.02.03.02a.189.189 0 0 0 .027.02l.03.02.028.02.028.017.028.018.028.018.03.017.027.017c.008.006.018.01.027.016l.028.016.03.016.027.015.028.015.03.015.027.014.028.013.028.014.03.014.027.014.028.013.028.012.03.01.027.014.028.01.03.013.028.01.028.012.028.01.03.01.027.01c.01.005.02.008.03.01.01.005.018.008.028.01l.028.01.028.01.028.01.03.01.027.008.027.01.028.008.03.008.027.008.028.008.03.008.027.008.028.007.028.008.03.008.027.007.028.007.03.007.027.005.028.007.028.006.03.006.028.006.028.006.028.006.03.005.027.006.03.005.028.006.028.005.028.004.028.005.03.003.027.005.027.004.03.005.027.004.028.005.028.004.03.003.027.004.028.004.028.004.03.004.027.003.028.004.03.004.027.003.028.004.028.003.03.002.028.002.028.003.028.002.03.003.027.002.03.002.028.002.028.002.028.002.028.002.03.002.027.002h.027l.03.003h.027l.028.002h.028l.03.002.027.002h.028l.028.002h.058l.028.002h.03l.027.002h.115l.028.002h.282l.027-.002h.085l.028-.002h.03l.027-.002h.028l.028-.002h.03l.027-.002h.028l.03-.002h.027l.014-.002h.013l.028-.002h.03l.028-.003h.028l.03-.003.027-.002.028-.002.03-.002.028-.002.028-.002.028-.003.028-.003.03-.003.027-.002.027-.003.03-.004.027-.002.028-.003.028-.002.03-.003.027-.003.028-.004.03-.003.027-.003.028-.004.028-.003.03-.004.027-.002.028-.004.028-.004.03-.004.028-.003.028-.004.03-.005.027-.004.028-.004.03-.004.028-.004.028-.004.028-.005.03-.005.027-.005.03-.004.027-.005.03-.003.027-.005.028-.005.028-.005.03-.005.027-.005.028-.005.03-.005.027-.005.028-.005.028-.005.03-.006.027-.004.028-.005.028-.005.03-.005.028-.006.028-.005.03-.007.027-.006.028-.006.03-.005.028-.005.028-.006.028-.006.03-.007.027-.005.03-.006.027-.007.03-.006.027-.007.028-.006.03-.007.027-.007.027-.006.028-.007.028-.007v-1.24l-.028.013-.028.014-.028.013-.03.014-.028.014-.028.013-.028.014-.03.014-.027.013-.03.014-.027.012-.03.013-.027.01-.028.014-.03.012-.027.012-.027.012-.028.012-.03.01-.027.012-.028.012-.03.01-.027.012-.028.01-.028.01-.03.012-.027.01-.028.01-.028.01-.03.01-.027.01-.028.01-.03.01-.028.008-.028.01-.028.008-.03.008-.027.01-.03.007-.027.01-.03.008-.027.007-.028.008-.03.008-.027.008-.027.007-.028.008-.03.006-.027.006-.028.007-.03.006-.027.006-.028.006-.028.006-.03.006-.027.005-.028.005-.028.005-.03.005-.027.005-.028.005-.03.005-.028.005-.028.004-.028.003-.03.004-.027.004-.03.005-.028.004-.028.002-.028.004-.028.003-.03.002-.027.003-.027.003-.028.002-.03.003-.027.002h-.017l-.01.002-.03.002h-.027l-.028.002-.028.002h-.03l-.027.002h-.028l-.03.002h-.169l-.028-.002h-.03c-.008 0-.018 0-.027-.002h-.03l-.028-.003h-.028l-.028-.003c-.01 0-.02-.002-.028-.003l-.03-.002-.027-.003-.027-.005-.028-.003-.03-.004-.027-.004c-.01 0-.02-.003-.028-.004-.01 0-.02-.003-.03-.005-.008 0-.018-.003-.027-.004-.01 0-.02-.003-.028-.005-.01 0-.02-.003-.028-.005l-.03-.006-.027-.006-.028-.006-.03-.007-.027-.007-.028-.007-.028-.007-.03-.008c-.01-.003-.02-.006-.028-.01l-.028-.008a.183.183 0 0 1-.028-.01.118.118 0 0 1-.03-.01.112.112 0 0 1-.027-.01.176.176 0 0 1-.03-.01l-.028-.01-.028-.012-.028-.012-.028-.012-.03-.012c-.008-.004-.018-.01-.027-.013l-.027-.014-.03-.014-.027-.015a.184.184 0 0 1-.028-.015.187.187 0 0 1-.028-.016l-.03-.018-.027-.018-.028-.018a.2.2 0 0 1-.028-.02l-.03-.02-.027-.02c-.01-.007-.02-.014-.028-.022l-.03-.022-.027-.024a.226.226 0 0 1-.028-.025.233.233 0 0 1-.028-.026l-.03-.027c-.01-.01-.02-.018-.028-.028l-.028-.03-.028-.03-.03-.034-.027-.034-.03-.037-.028-.04a.286.286 0 0 1-.028-.04l-.028-.044c-.01-.016-.02-.03-.028-.047l-.03-.05c-.008-.02-.018-.038-.027-.057l-.027-.06-.03-.068c-.01-.025-.018-.05-.027-.076a2.003 2.003 0 0 1-.056-.19l-.03-.134a2.618 2.618 0 0 1-.037-.462 2.657 2.657 0 0 1 .038-.461l.03-.135c.008-.035.018-.07.028-.104l.028-.086.028-.075.03-.068.027-.06.03-.056a.49.49 0 0 1 .028-.05l.028-.05c.01-.013.018-.028.028-.043l.028-.04.03-.04.027-.036.027-.035.03-.033c.008-.01.017-.022.027-.032l.028-.03.028-.028.03-.027a.166.166 0 0 1 .027-.026l.028-.025.028-.023a.21.21 0 0 1 .03-.024l.027-.022.028-.02.03-.02a.189.189 0 0 1 .027-.02l.028-.018.028-.018c.01-.006.02-.01.03-.017l.028-.015c.01-.006.02-.01.028-.016.01-.006.02-.01.028-.016l.03-.015.027-.015c.01-.004.02-.01.03-.013.01-.004.018-.01.028-.013.01-.005.018-.01.028-.013l.028-.012.028-.012.03-.01a.125.125 0 0 1 .027-.01.088.088 0 0 1 .027-.01.118.118 0 0 1 .03-.01l.027-.01c.01-.003.02-.006.028-.01l.028-.008.03-.008.027-.008.028-.008.028-.007.03-.007.027-.006.028-.006.03-.006.027-.005.028-.006.028-.005.03-.005.028-.004.028-.004.03-.004.027-.003.028-.004.03-.002.028-.002c.01 0 .018-.002.028-.003l.028-.002h.028l.03-.003h.027c.008-.002.018-.002.027-.002h.03l.027-.002h.223l.028.002h.03l.027.003h.028l.028.003.03.003h.01l.018.002.028.002.03.003.027.002.028.003.03.003.028.003.028.004.028.003.028.004.03.004.027.004.027.004.03.004.027.004.028.005.028.004.03.004.027.005.028.004.03.005.027.004.028.006.028.005.03.006.027.007.028.006.028.006.03.006.028.006.028.007.03.006.027.007.028.007.03.008.028.007.028.008.028.008.03.01.027.007.03.008.027.01.03.008.027.008.028.01.028.01.03.01.027.01.028.008.03.01.027.01.028.01.028.01.03.01.027.012.028.01.028.012.03.01.028.012.028.012.03.01.027.013.028.01.03.013.028.012.028.013.028.012.03.013.027.013.03.013.027.012.03.013.027.014.028.012.03.014.027.014.027.014.028.014.028.014V10.58l-.028-.007-.028-.007-.028-.007-.03-.007-.028-.007-.028-.006-.028-.007-.03-.006-.027-.006-.03-.005-.027-.007-.03-.006-.027-.006-.028-.006-.03-.005-.027-.006-.027-.007-.028-.006-.03-.006-.027-.004-.028-.006-.03-.005-.027-.006-.028-.006-.028-.005-.03-.007-.027-.005-.028-.005-.028-.005-.03-.005-.027-.005-.028-.005-.03-.005-.028-.005-.028-.005-.028-.004-.03-.005-.027-.006-.03-.004-.027-.005-.03-.004-.027-.004-.028-.004-.03-.004-.027-.004-.027-.004-.028-.004-.03-.004-.027-.004-.028-.004-.03-.004-.027-.004-.028-.003-.028-.004-.03-.005-.027-.003-.028-.003-.028-.005-.03-.003-.027-.003-.028-.004-.03-.003-.028-.003-.028-.003-.028-.003-.03-.003h-.027l-.03-.004-.028-.002-.028-.003h-.028l-.028-.003-.03-.002-.027-.002-.027-.002h-.028l-.03-.003-.027-.002h-.028l-.03-.003h-.027l-.014-.002h-.015l-.028-.002h-.03l-.027-.002h-.028l-.03-.002h-.027l-.028-.002h-.059l-.028-.002h-.056l-.03-.002h-.45l-.028.002h-.058l-.028.002h-.03l-.027.002h-.028l-.028.002h-.03l-.028.003h-.028l-.028.002h-.03l-.027.003-.03.002h-.028l-.028.003-.028.002-.028.002-.03.002-.027.003h-.027l-.03.003-.027.003-.028.003h-.028l-.03.004-.027.003-.028.003-.028.003-.03.003-.027.004-.028.003-.03.003-.027.004-.028.004-.028.004-.03.004-.028.004-.028.004-.028.004-.03.004-.027.005-.03.004-.028.005-.028.005-.028.005-.028.005-.03.005-.027.006-.027.005-.03.006-.027.005-.028.005-.028.007-.03.006-.027.006-.028.006-.028.006-.03.007-.027.006-.028.007-.03.007-.027.007-.028.008-.028.008-.03.008-.028.01-.028.007-.03.008-.027.01-.028.008-.03.01-.028.008-.028.01-.028.01-.028.01-.03.01-.027.01-.027.01-.03.01-.027.012-.028.01-.028.012-.03.012-.027.01-.028.013-.03.012-.027.012-.028.013-.028.013-.03.014-.027.014-.028.014-.028.014-.03.015c-.01.006-.02.01-.028.016l-.028.015-.03.017-.027.016a.187.187 0 0 0-.028.016l-.03.016-.028.017-.028.018c-.01.007-.02.013-.028.02l-.028.017-.03.02-.027.018-.027.02-.03.02c-.008.008-.018.014-.027.02-.01.01-.02.016-.028.023l-.028.022-.03.022.004.005z" fill="#FFF"/></svg>