<svg width="41.36" height="26.266" xmlns="http://www.w3.org/2000/svg"><rect width="41.36" height="26.266" rx="2"/><path d="M11.417 23.875v-1.486a.864.864 0 0 0-.916-.941.976.976 0 0 0-.842.42.866.866 0 0 0-.793-.42.842.842 0 0 0-.718.346v-.297h-.47v2.378h.47v-1.362a.556.556 0 0 1 .595-.62c.346 0 .545.223.545.62v1.362h.47v-1.362a.554.554 0 0 1 .594-.62c.347 0 .545.223.545.62v1.362h.52zm7.727-2.353h-.866v-.718h-.471v.718h-.495v.421h.495v1.114c0 .545.198.867.793.867a1.38 1.38 0 0 0 .643-.173l-.148-.421a.816.816 0 0 1-.446.124.347.347 0 0 1-.372-.397v-1.139h.867v-.396zm4.409-.074a.743.743 0 0 0-.644.346v-.297h-.47v2.378h.47v-1.338c0-.396.198-.644.52-.644.109.005.217.021.322.05l.148-.446a1.67 1.67 0 0 0-.346-.05zm-6.662.247a1.7 1.7 0 0 0-.966-.247c-.595 0-.966.272-.966.743 0 .396.272.619.792.693l.248.025c.273.05.446.149.446.272 0 .174-.198.298-.57.298a1.304 1.304 0 0 1-.792-.248l-.248.371c.301.2.655.303 1.016.298.693 0 1.065-.322 1.065-.768s-.298-.62-.818-.694l-.247-.024c-.223-.025-.421-.1-.421-.248 0-.149.198-.297.47-.297.26.011.513.079.743.198l.248-.372zm7.207.991a1.168 1.168 0 0 0 1.238 1.238c.305.016.605-.08.842-.272l-.248-.372a.991.991 0 0 1-.619.223.795.795 0 0 1 0-1.585.99.99 0 0 1 .62.223l.247-.371a1.238 1.238 0 0 0-.842-.273 1.11 1.11 0 0 0-1.238 1.189zm-3.344-1.238c-.693 0-1.164.495-1.164 1.238a1.164 1.164 0 0 0 1.214 1.238c.35.008.69-.106.966-.322l-.248-.346a1.184 1.184 0 0 1-.694.247.696.696 0 0 1-.718-.619h1.759v-.198c0-.743-.446-1.238-1.115-1.238zm0 .445a.593.593 0 0 1 .62.595h-1.289a.637.637 0 0 1 .67-.595zm-6.414.793v-1.189h-.47v.297a.911.911 0 0 0-.769-.346 1.238 1.238 0 1 0 0 2.476.912.912 0 0 0 .768-.346v.297h.47v-1.189zm-1.932 0a.743.743 0 1 1 .743.792.728.728 0 0 1-.743-.792zm18.302-1.238a.743.743 0 0 0-.644.346v-.297h-.47v2.378h.47v-1.338c0-.396.198-.644.52-.644.11.005.217.021.322.05l.149-.446a1.67 1.67 0 0 0-.347-.05zm-1.832 1.238v-1.189h-.471v.297a.911.911 0 0 0-.768-.346 1.238 1.238 0 1 0 0 2.476.912.912 0 0 0 .768-.346v.297h.47v-1.189zm-1.907 0a.743.743 0 1 1 .743.792c-.471.025-.743-.346-.743-.792zm6.711 0v-2.13h-.47v1.238a.911.911 0 0 0-.768-.346 1.238 1.238 0 1 0 0 2.476.912.912 0 0 0 .767-.346v.297h.47v-1.189h.001zm-1.932 0a.743.743 0 1 1 .743.792.728.728 0 0 1-.743-.792z" fill="#FFF"/><path fill="#FF5F00" d="M16.544 3.492h8.594V17.51h-8.594z"/><path d="M17.435 10.501a8.941 8.941 0 0 1 3.393-7.009 8.916 8.916 0 1 0-5.498 15.925 8.861 8.861 0 0 0 5.498-1.907 8.941 8.941 0 0 1-3.393-7.01v.001z" fill="#EB001B"/><path d="M35.267 10.501a8.916 8.916 0 0 1-14.414 7.009 8.936 8.936 0 0 0 0-14.018 8.916 8.916 0 0 1 14.414 7.009z" fill="#F79E1B"/></svg>