<svg width="41" height="26.4" xmlns="http://www.w3.org/2000/svg"><rect fill="#26337A" width="41" height="26.4" rx="2"/><path d="M16.256 17.4l1.352-8.392h2.163L18.42 17.4h-2.164zm10.006-8.186a5.352 5.352 0 0 0-1.937-.352c-2.138 0-3.643 1.14-3.656 2.77-.014 1.206 1.073 1.88 1.893 2.28.843.41 1.126.674 1.122 1.04-.005.563-.672.82-1.294.82-.865 0-1.325-.126-2.036-.44l-.278-.133-.303 1.878c.505.233 1.44.436 2.41.447 2.272 0 3.748-1.125 3.766-2.867.007-.956-.57-1.68-1.818-2.28-.755-.39-1.22-.647-1.214-1.04 0-.35.392-.723 1.24-.723a3.821 3.821 0 0 1 1.617.322l.195.096.292-1.82.001.002zm2.88 5.211c.18-.482.86-2.346.86-2.346-.01.02.18-.487.29-.8l.145.722s.415 2.004.5 2.423h-1.795v.001zm2.668-5.408h-1.67c-.52 0-.908.148-1.135.695l-3.21 7.692h2.27s.37-1.035.455-1.262l2.77.004c.064.293.263 1.258.263 1.258h2.007l-1.75-8.387zm-17.37-.002l-2.115 5.722-.227-1.163c-.394-1.34-1.622-2.793-2.996-3.52l1.937 7.34 2.287-.002 3.406-8.377H14.44z" fill="#FFF"/><path d="M10.36 9.01H6.872l-.028.173c2.713.695 4.51 2.374 5.254 4.39l-.758-3.856c-.13-.53-.51-.69-.98-.708" fill="#ED982D"/></svg>